HIERARCHY
ROOT Hips
{
	OFFSET 0.0000 0.0000 0.0000
	CHANNELS 6 Xposition Yposition Zposition Zrotation Xrotation Yrotation
	JOINT Ab
	{
		OFFSET -0.0000 8.0846 -0.0000
		CHANNELS 3 Zrotation Xrotation Yrotation
		JOINT Chest
		{
			OFFSET -0.0000 25.0068 -0.0000
			CHANNELS 3 Zrotation Xrotation Yrotation
			JOINT Neck
			{
				OFFSET -0.0000 25.0068 0.0000
				CHANNELS 3 Zrotation Xrotation Yrotation
				JOINT Head
				{
					OFFSET -0.0000 10.7556 0.0000
					CHANNELS 3 Zrotation Xrotation Yrotation
					End Site
					{
						OFFSET -0.0000 16.6222 0.0000
					}
				}
			}
			JOINT LeftCollar
			{
				OFFSET -0.0000 25.0068 0.0000
				CHANNELS 3 Zrotation Xrotation Yrotation
				JOINT LeftShoulder
				{
					OFFSET 19.5556 -0.0000 0.0000
					CHANNELS 3 Zrotation Xrotation Yrotation
					JOINT LeftElbow
					{
						OFFSET 27.1828 0.0000 0.0000
						CHANNELS 3 Zrotation Xrotation Yrotation
						JOINT LeftWrist
						{
							OFFSET 23.3157 0.0000 0.0000
							CHANNELS 3 Zrotation Xrotation Yrotation
							End Site
							{
								OFFSET 0.0000 -14.6667 0.0000
							}
						}
					}
				}
			}
			JOINT RightCollar
			{
				OFFSET -0.0000 25.0068 0.0000
				CHANNELS 3 Zrotation Xrotation Yrotation
				JOINT RightShoulder
				{
					OFFSET -19.5556 0.0000 0.0000
					CHANNELS 3 Zrotation Xrotation Yrotation
					JOINT RightElbow
					{
						OFFSET -27.1828 0.0000 0.0000
						CHANNELS 3 Zrotation Xrotation Yrotation
						JOINT RightWrist
						{
							OFFSET -23.3157 0.0000 0.0000
							CHANNELS 3 Zrotation Xrotation Yrotation
							End Site
							{
								OFFSET -0.0000 -14.6667 0.0000
							}
						}
					}
				}
			}
		}
	}
	JOINT LeftHip
	{
		OFFSET 11.7333 0.0000 0.0000
		CHANNELS 3 Zrotation Xrotation Yrotation
		JOINT LeftKnee
		{
			OFFSET -0.0000 -40.8688 0.0000
			CHANNELS 3 Zrotation Xrotation Yrotation
			JOINT LeftAnkle
			{
				OFFSET -0.0000 -44.4337 0.0000
				CHANNELS 3 Zrotation Xrotation Yrotation
				End Site
				{
					OFFSET -0.0000 -4.8889 16.6222
				}
			}
		}
	}
	JOINT RightHip
	{
		OFFSET -11.7333 0.0000 0.0000
		CHANNELS 3 Zrotation Xrotation Yrotation
		JOINT RightKnee
		{
			OFFSET -0.0000 -40.8688 0.0000
			CHANNELS 3 Zrotation Xrotation Yrotation
			JOINT RightAnkle
			{
				OFFSET -0.0000 -44.4337 0.0000
				CHANNELS 3 Zrotation Xrotation Yrotation
				End Site
				{
					OFFSET -0.0000 -4.8889 16.6222
				}
			}
		}
	}
}
MOTION
Frames: 17
Frame Time: 0.010000
-3.0521 88.7519 189.5420 2.4285 359.4395 175.0102 2.0126 358.9068 358.5611 359.0537 12.3200 358.6442 2.4868 340.3245 1.5831 2.2212 3.4031 1.0840 338.7370 358.4767 8.1089 301.0000 31.4333 354.6777 17.5394 354.0447 322.7066 81.4873 1.0074 341.7903 22.2782 359.2233 356.0191 58.9232 43.1225 9.3012 337.5666 354.0766 29.2751 277.8185 352.7903 20.8659 1.9679 358.0815 357.8251 358.9778 10.4932 359.3762 359.2621 351.8928 22.4067 1.7636 352.0838 359.6186 359.0391 18.3536 9.1668 355.5099 345.6824 337.9932 
-3.0560 88.7531 189.5383 2.4257 359.4395 174.9993 2.0061 358.9218 358.5603 359.0560 12.3237 358.6430 2.4927 340.3153 1.5880 2.1812 3.4643 1.0884 338.7362 358.4635 8.1427 300.9870 31.5936 354.6783 17.6285 354.0121 322.7071 81.4241 0.9876 341.8647 22.2769 359.2168 356.0161 58.9129 43.1111 9.3063 337.5760 354.0645 29.3043 277.8190 352.7809 20.9087 1.9642 358.0838 357.8190 358.9720 10.4981 359.3836 359.1540 351.8614 22.3946 1.7605 352.0813 359.6332 359.0362 18.3664 9.1802 355.5125 345.6624 337.9761 
-3.0600 88.7538 189.5345 2.4248 359.4413 174.9895 2.0069 358.9427 358.5536 359.0544 12.3238 358.6375 2.4786 340.3065 1.5873 2.1678 3.5174 1.0940 338.7283 358.4684 8.1793 300.9921 31.7188 354.6628 17.6572 354.0110 322.7127 81.4541 0.9684 341.9643 22.2782 359.2104 356.0048 58.8853 43.1213 9.3250 337.5831 354.0536 29.3285 277.8435 352.8237 20.9098 1.9608 358.0940 357.8234 358.9681 10.4915 359.3829 359.1483 351.8560 22.4013 1.7578 352.0828 359.6554 359.0417 18.3676 9.1737 355.5077 345.6523 337.9647 
-3.0645 88.7548 189.5295 2.4238 359.4478 174.9848 2.0074 358.9718 358.5477 359.0526 12.3136 358.6332 2.4479 340.3050 1.5838 2.1744 3.5747 1.0875 338.7174 358.4766 8.1926 300.9938 31.7995 354.6754 17.6270 354.0319 322.7309 81.5996 0.8874 342.0747 22.2820 359.2031 355.9879 58.8570 43.1364 9.3387 337.5985 354.0477 29.3606 277.8504 352.8912 20.9202 1.9558 358.1128 357.8258 358.9700 10.4750 359.3860 359.2910 351.8919 22.4219 1.7526 352.0897 359.6646 359.0427 18.3732 9.1875 355.5314 345.6319 337.9595 
-3.0674 88.7563 189.5282 2.4243 359.4432 174.9822 2.0058 358.9851 358.5405 359.0563 12.3205 358.6259 2.4331 340.2984 1.5986 2.1716 3.6147 1.0864 338.7150 358.4582 8.2059 300.9693 31.8471 354.6875 17.6763 353.9857 322.6735 81.4372 0.9184 342.0392 22.2808 359.2069 355.9815 58.8368 43.1354 9.3593 337.6074 354.0620 29.3648 277.8413 352.8750 20.9395 1.9563 358.1077 357.8236 358.9685 10.4790 359.3719 359.2888 351.8781 22.4368 1.7531 352.0800 359.6794 359.0426 18.3896 9.1746 355.5578 345.6128 337.9703 
-3.0706 88.7565 189.5219 2.4242 359.4529 174.9790 1.9931 359.0050 358.5395 359.0808 12.3433 358.6220 2.4035 340.2564 1.5938 2.1572 3.6892 1.1045 338.7080 358.4443 8.2279 300.9550 31.9457 354.6872 17.7257 353.9669 322.6653 81.3213 0.8838 342.0345 22.2576 359.2027 355.9698 58.8183 43.1582 9.3912 337.5860 354.0503 29.3754 277.8304 352.8879 20.9552 1.9539 358.1239 357.8276 358.9663 10.4755 359.3746 359.2833 351.8719 22.4261 1.7499 352.0940 359.6909 359.0478 18.3875 9.1462 355.5259 345.5944 337.9763 
-3.0749 88.7574 189.5157 2.4218 359.4577 174.9746 1.9785 359.0102 358.5364 359.1211 12.3983 358.6159 2.3413 340.1878 1.5915 2.1730 3.7555 1.1168 338.7060 358.4350 8.2534 300.9383 32.0399 354.6722 17.7140 353.9855 322.6537 81.3622 0.8625 342.0678 22.2119 359.1949 355.9378 58.7630 43.1756 9.4743 337.5901 354.0435 29.4029 277.8213 352.9124 20.9540 1.9480 358.1326 357.8125 358.9594 10.4755 359.4035 359.2877 351.8717 22.4242 1.7439 352.1033 359.7114 359.0534 18.3869 9.1312 355.5532 345.5637 337.9810 
-3.0792 88.7583 189.5118 2.4175 359.4519 174.9771 1.9694 359.0169 358.5310 359.1327 12.4154 358.6094 2.3215 340.1607 1.5917 2.1733 3.8076 1.1184 338.7038 358.4391 8.2567 300.9223 32.0872 354.6779 17.7008 353.9990 322.6419 81.3958 0.8418 342.0669 22.2023 359.2087 355.9179 58.7154 43.1762 9.5254 337.6220 354.0587 29.4139 277.8136 352.9178 20.9682 1.9414 358.1228 357.8060 358.9584 10.4861 359.3944 359.3079 351.8700 22.4383 1.7336 352.0973 359.7220 359.0605 18.3942 9.1486 355.7352 345.4341 337.8940 
-3.0837 88.7597 189.5066 2.4122 359.4502 174.9799 1.9584 359.0278 358.5276 359.1404 12.4264 358.6054 2.3227 340.1632 1.5988 2.1398 3.8193 1.1220 338.7079 358.4447 8.2360 300.8718 32.0067 354.7115 17.6148 354.0272 322.6086 81.4212 0.8453 341.9593 22.1939 359.2029 355.9147 58.7132 43.1782 9.5264 337.5708 354.0251 29.4426 277.9027 352.9585 20.8762 1.9361 358.1250 357.8016 358.9526 10.4850 359.3865 359.3140 351.8642 22.4511 1.7241 352.0937 359.7168 359.0598 18.4071 9.1592 355.5644 345.5283 337.9476 
-3.0870 88.7606 189.5040 2.4127 359.4437 174.9844 1.9617 359.0451 358.5218 359.1334 12.4217 358.6016 2.3407 340.1864 1.6181 2.1133 3.8017 1.1358 338.7141 358.4555 8.2367 300.8445 31.9995 354.7148 17.5722 354.0259 322.5838 81.4525 0.8563 341.9585 22.1928 359.2028 355.9073 58.7019 43.1680 9.5344 337.4627 353.9989 29.4772 278.1154 353.0456 20.4544 1.9347 358.1106 357.7989 358.9530 10.5007 359.4006 359.3044 351.8515 22.4307 1.7242 352.0832 359.7358 359.0639 18.4195 9.1410 355.6144 345.4836 337.9183 
-3.0904 88.7618 189.4993 2.4108 359.4428 174.9938 1.9583 359.0671 358.5167 359.1293 12.4133 358.5968 2.3469 340.2003 1.6280 2.0947 3.7942 1.1457 338.7202 358.4417 8.2424 300.8165 32.0437 354.7361 17.5785 354.0179 322.5721 81.4197 0.8454 341.9591 22.1934 359.1948 355.8914 58.6676 43.1945 9.5556 337.4463 353.9878 29.4833 278.1280 353.0352 20.3940 1.9314 358.1012 357.7972 358.9465 10.5180 359.4089 359.1877 351.8235 22.4042 1.7180 352.0845 359.7409 359.0679 18.4248 9.1230 355.6149 345.4642 337.9249 
-3.0936 88.7627 189.4904 2.4070 359.4506 174.9957 1.9458 359.0870 358.5191 359.1332 12.4233 358.5980 2.3515 340.2060 1.6363 2.0776 3.7923 1.1544 338.7148 358.4482 8.2710 300.8214 32.1269 354.7122 17.5705 354.0112 322.6076 81.4394 0.8040 341.9602 22.1855 359.1887 355.8865 58.6587 43.1996 9.5570 337.4411 353.9829 29.4963 278.1512 353.0011 20.3648 1.9258 358.1100 357.7848 358.9418 10.5247 359.4064 359.0451 351.7839 22.3902 1.7093 352.1000 359.7593 359.0756 18.4228 9.1060 355.6235 345.4450 337.9288 
-3.0963 88.7626 189.4804 2.4053 359.4574 174.9953 1.9342 359.1054 358.5257 359.1355 12.4326 358.6054 2.3670 340.2166 1.6470 2.0517 3.7836 1.1647 338.7129 358.4220 8.3010 300.8184 32.2910 354.7081 17.6665 353.9831 322.6393 81.4525 0.7623 342.0849 22.1765 359.1844 355.8733 58.6417 43.2133 9.5728 337.4363 353.9846 29.4821 278.2370 352.7952 20.3571 1.9255 358.1229 357.7779 358.9314 10.5271 359.3927 359.1016 351.7804 22.4199 1.7056 352.1146 359.7814 359.0799 18.4235 9.1002 355.6450 345.4108 337.9176 
-3.1001 88.7628 189.4744 2.4021 359.4447 175.0139 1.9366 359.1102 358.5171 359.1201 12.4293 358.5990 2.3838 340.2390 1.6527 2.0252 3.7651 1.1689 338.7130 358.4209 8.3119 300.8205 32.3960 354.7099 17.6861 353.9707 322.6820 81.5273 0.7175 342.1680 22.1853 359.1746 355.8560 58.6187 43.1939 9.5630 337.4537 353.9923 29.5364 278.2548 352.7334 20.3623 1.9244 358.1027 357.7475 358.9207 10.5431 359.3843 359.1952 351.7888 22.4525 1.6973 352.1080 359.7863 359.0872 18.4309 9.1416 355.6875 345.3686 337.8657 
-3.1042 88.7627 189.4671 2.3975 359.4282 175.0463 1.9370 359.1036 358.5034 359.1110 12.4380 358.5865 2.3904 340.2411 1.6494 2.0048 3.7619 1.1643 338.7120 358.4465 8.2898 300.8035 32.3442 354.7294 17.5883 354.0172 322.7108 81.7524 0.6500 342.1887 22.1868 359.1745 355.8436 58.6032 43.1435 9.5440 337.5042 353.9917 29.6242 278.2310 352.7428 20.3832 1.9172 358.0645 357.7181 358.9204 10.5825 359.3827 359.3491 351.8015 22.4782 1.6847 352.1071 359.7901 359.1013 18.4236 9.1698 355.6566 345.3716 337.8050 
-3.1076 88.7624 189.4624 2.3945 359.4161 175.0559 1.9264 359.1145 358.5098 359.1119 12.4364 358.5935 2.3781 340.2431 1.6503 2.0188 3.7668 1.1669 338.7089 358.4498 8.2810 300.7696 32.2488 354.7507 17.5475 354.0378 322.6930 81.8860 0.6152 342.1455 22.1780 359.1790 355.8436 58.5929 43.1500 9.5477 337.5074 353.9761 29.6644 278.2617 352.7723 20.3687 1.9139 358.0467 357.7232 358.9171 10.6005 359.3778 359.2030 351.7726 22.4475 1.6783 352.0955 359.8024 359.1069 18.4314 9.1601 355.6214 345.3827 337.7959 
-3.1117 88.7619 189.4515 2.3888 359.4160 175.0631 1.9167 359.1266 358.5149 359.1074 12.4420 358.5990 2.3832 340.2481 1.6529 2.0095 3.7664 1.1690 338.7056 358.4468 8.2887 300.7523 32.2737 354.7547 17.5922 354.0157 322.7238 81.9642 0.5678 342.2028 22.1760 359.1931 355.8384 58.5652 43.1453 9.5650 337.4794 353.9707 29.6146 278.3078 352.5364 20.1599 1.9062 358.0438 357.7239 358.9119 10.6178 359.3815 359.1139 351.7439 22.4245 1.6658 352.1056 359.8234 359.1195 18.4270 9.1039 355.6304 345.3651 337.8259 
